<?xml version="1.0" encoding="UTF-8"?>
<svg xmlns="http://www.w3.org/2000/svg" xmlns:xlink="http://www.w3.org/1999/xlink" width="1000px" height="1000px" viewBox="0 0 1000 1000" version="1.1">
<g id="surface1">
<path style=" stroke:none;fill-rule:nonzero;fill:rgb(20%,89.019608%,100%);fill-opacity:1;" d="M 179.160156 377.640625 L 212.160156 377.640625 L 212.160156 506.476562 L 179.160156 506.476562 Z M 179.160156 377.640625 "/>
<path style=" stroke:none;fill-rule:nonzero;fill:rgb(20%,89.019608%,100%);fill-opacity:1;" d="M 319.257812 412.351562 L 319.257812 506.476562 L 287.839844 506.476562 L 287.839844 496.390625 C 284.363281 500.226562 280.195312 503.132812 275.339844 505.101562 C 270.476562 507.070312 265.320312 508.058594 259.882812 508.058594 C 247.738281 508.058594 238.050781 504.476562 230.800781 497.308594 C 223.570312 490.121094 219.964844 479.339844 219.964844 464.976562 L 219.964844 412.351562 L 252.964844 412.351562 L 252.964844 459.601562 C 252.964844 466.664062 254.277344 471.808594 256.925781 475.058594 C 259.589844 478.289062 263.476562 479.890625 268.589844 479.890625 C 273.777344 479.890625 278.027344 478.078125 281.339844 474.433594 C 284.644531 470.796875 286.300781 465.214844 286.300781 457.683594 L 286.300781 412.351562 Z M 319.257812 412.351562 "/>
<path style=" stroke:none;fill-rule:nonzero;fill:rgb(20%,89.019608%,100%);fill-opacity:1;" d="M 375.3125 508.058594 C 364.898438 508.058594 355.574219 505.976562 347.355469 501.808594 C 339.15625 497.621094 332.773438 491.828125 328.1875 484.433594 C 323.625 477.015625 321.355469 468.632812 321.355469 459.265625 C 321.355469 449.882812 323.625 441.515625 328.1875 434.183594 C 332.773438 426.828125 339.15625 421.089844 347.355469 416.976562 C 355.574219 412.871094 364.898438 410.808594 375.3125 410.808594 C 385.980469 410.808594 395.1875 413.101562 402.9375 417.683594 C 410.6875 422.246094 416.1875 428.578125 419.4375 436.683594 L 393.898438 449.683594 C 389.617188 441.246094 383.367188 437.015625 375.148438 437.015625 C 369.25 437.015625 364.367188 438.996094 360.480469 442.933594 C 356.617188 446.882812 354.6875 452.328125 354.6875 459.265625 C 354.6875 466.328125 356.617188 471.851562 360.480469 475.851562 C 364.367188 479.828125 369.25 481.808594 375.148438 481.808594 C 383.367188 481.808594 389.617188 477.589844 393.898438 469.140625 L 419.4375 482.183594 C 416.1875 490.265625 410.6875 496.601562 402.9375 501.183594 C 395.1875 505.765625 385.980469 508.058594 375.3125 508.058594 Z M 375.3125 508.058594 "/>
<path style=" stroke:none;fill-rule:nonzero;fill:rgb(20%,89.019608%,100%);fill-opacity:1;" d="M 514.917969 459.601562 C 514.917969 459.828125 514.730469 462.546875 514.378906 467.765625 L 445.960938 467.765625 C 447.347656 472.632812 450.042969 476.371094 454.042969 478.976562 C 458.042969 481.558594 463.054688 482.851562 469.085938 482.851562 C 473.585938 482.851562 477.480469 482.226562 480.792969 480.976562 C 484.097656 479.703125 487.417969 477.601562 490.753906 474.683594 L 508.128906 492.765625 C 498.980469 502.964844 485.628906 508.058594 468.042969 508.058594 C 457.042969 508.058594 447.378906 505.976562 439.042969 501.808594 C 430.710938 497.621094 424.253906 491.828125 419.667969 484.433594 C 415.105469 477.015625 412.835938 468.632812 412.835938 459.265625 C 412.835938 449.996094 415.054688 441.683594 419.503906 434.351562 C 423.941406 426.996094 430.097656 421.226562 437.960938 417.058594 C 445.847656 412.890625 454.710938 410.808594 464.542969 410.808594 C 473.929688 410.808594 482.441406 412.757812 490.085938 416.640625 C 497.722656 420.507812 503.761719 426.121094 508.210938 433.476562 C 512.679688 440.808594 514.917969 449.515625 514.917969 459.601562 Z M 464.710938 434.265625 C 459.628906 434.265625 455.378906 435.714844 451.960938 438.601562 C 448.542969 441.496094 446.378906 445.421875 445.460938 450.390625 L 484.003906 450.390625 C 483.085938 445.421875 480.917969 441.496094 477.503906 438.601562 C 474.085938 435.714844 469.816406 434.265625 464.710938 434.265625 Z M 464.710938 434.265625 "/>
<path style=" stroke:none;fill-rule:nonzero;fill:rgb(20%,89.019608%,100%);fill-opacity:1;" d="M 639.546875 410.808594 C 651.128906 410.808594 660.359375 414.289062 667.253906 421.226562 C 674.140625 428.171875 677.589844 438.640625 677.589844 452.640625 L 677.589844 506.476562 L 644.589844 506.476562 L 644.589844 458.015625 C 644.589844 451.433594 643.339844 446.589844 640.839844 443.476562 C 638.359375 440.339844 634.859375 438.765625 630.339844 438.765625 C 625.359375 438.765625 621.359375 440.507812 618.339844 443.976562 C 615.339844 447.453125 613.839844 452.714844 613.839844 459.765625 L 613.839844 506.476562 L 580.878906 506.476562 L 580.878906 458.015625 C 580.878906 445.183594 576.128906 438.765625 566.628906 438.765625 C 561.546875 438.765625 557.484375 440.507812 554.464844 443.976562 C 551.464844 447.453125 549.964844 452.714844 549.964844 459.765625 L 549.964844 506.476562 L 516.964844 506.476562 L 516.964844 412.351562 L 548.378906 412.351562 L 548.378906 422.265625 C 551.847656 418.433594 555.984375 415.578125 560.796875 413.683594 C 565.597656 411.765625 570.839844 410.808594 576.503906 410.808594 C 583.109375 410.808594 589.015625 412.039062 594.214844 414.476562 C 599.433594 416.890625 603.671875 420.589844 606.921875 425.558594 C 610.609375 420.808594 615.296875 417.171875 620.964844 414.640625 C 626.628906 412.089844 632.816406 410.808594 639.546875 410.808594 Z M 639.546875 410.808594 "/>
<path style=" stroke:none;fill-rule:nonzero;fill:rgb(20%,89.019608%,100%);fill-opacity:1;" d="M 685.171875 412.351562 L 718.171875 412.351562 L 718.171875 506.476562 L 685.171875 506.476562 Z M 701.671875 401.933594 C 695.640625 401.933594 690.777344 400.265625 687.089844 396.933594 C 683.390625 393.578125 681.546875 389.414062 681.546875 384.433594 C 681.546875 379.433594 683.390625 375.265625 687.089844 371.933594 C 690.777344 368.578125 695.640625 366.890625 701.671875 366.890625 C 707.695312 366.890625 712.558594 368.496094 716.257812 371.683594 C 719.945312 374.851562 721.796875 378.921875 721.796875 383.890625 C 721.796875 389.121094 719.945312 393.433594 716.257812 396.851562 C 712.558594 400.246094 707.695312 401.933594 701.671875 401.933594 Z M 701.671875 401.933594 "/>
<path style=" stroke:none;fill-rule:nonzero;fill:rgb(20%,89.019608%,100%);fill-opacity:1;" d="M 773.5625 508.058594 C 763.480469 508.058594 754.375 505.976562 746.269531 501.808594 C 738.1875 497.621094 731.855469 491.828125 727.269531 484.433594 C 722.707031 477.015625 720.4375 468.632812 720.4375 459.265625 C 720.4375 449.996094 722.707031 441.664062 727.269531 434.265625 C 731.855469 426.851562 738.15625 421.089844 746.1875 416.976562 C 754.238281 412.871094 763.363281 410.808594 773.5625 410.808594 C 783.730469 410.808594 792.863281 412.871094 800.980469 416.976562 C 809.082031 421.089844 815.394531 426.828125 819.894531 434.183594 C 824.417969 441.515625 826.6875 449.882812 826.6875 459.265625 C 826.6875 468.632812 824.417969 477.015625 819.894531 484.433594 C 815.394531 491.828125 809.082031 497.621094 800.980469 501.808594 C 792.863281 505.976562 783.730469 508.058594 773.5625 508.058594 Z M 773.5625 481.808594 C 779.332031 481.808594 784.074219 479.828125 787.769531 475.851562 C 791.488281 471.851562 793.355469 466.328125 793.355469 459.265625 C 793.355469 452.328125 791.488281 446.882812 787.769531 442.933594 C 784.074219 438.996094 779.332031 437.015625 773.5625 437.015625 C 767.75 437.015625 763 438.996094 759.3125 442.933594 C 755.613281 446.882812 753.769531 452.328125 753.769531 459.265625 C 753.769531 466.328125 755.613281 471.851562 759.3125 475.851562 C 763 479.828125 767.75 481.808594 773.5625 481.808594 Z M 773.5625 481.808594 "/>
</g>
</svg>
