<svg xmlns="http://www.w3.org/2000/svg" xmlns:xlink="http://www.w3.org/1999/xlink" width="500" zoomAndPan="magnify" viewBox="0 0 375 374.999991" height="500" preserveAspectRatio="xMidYMid meet" version="1.0"><defs><g/></defs><g fill="#33e3ff" fill-opacity="1"><g transform="translate(63.216168, 189.928231)"><g><path d="M 3.96875 -48.3125 L 16.34375 -48.3125 L 16.34375 0 L 3.96875 0 Z M 3.96875 -48.3125 "/></g></g></g><g fill="#33e3ff" fill-opacity="1"><g transform="translate(78.643379, 189.928231)"><g><path d="M 41.078125 -35.296875 L 41.078125 0 L 29.296875 0 L 29.296875 -3.78125 C 27.992188 -2.34375 26.429688 -1.253906 24.609375 -0.515625 C 22.785156 0.222656 20.851562 0.59375 18.8125 0.59375 C 14.257812 0.59375 10.625 -0.75 7.90625 -3.4375 C 5.195312 -6.132812 3.84375 -10.175781 3.84375 -15.5625 L 3.84375 -35.296875 L 16.21875 -35.296875 L 16.21875 -17.578125 C 16.21875 -14.929688 16.710938 -13 17.703125 -11.78125 C 18.703125 -10.570312 20.160156 -9.96875 22.078125 -9.96875 C 24.023438 -9.96875 25.617188 -10.648438 26.859375 -12.015625 C 28.097656 -13.378906 28.71875 -15.472656 28.71875 -18.296875 L 28.71875 -35.296875 Z M 41.078125 -35.296875 "/></g></g></g><g fill="#33e3ff" fill-opacity="1"><g transform="translate(118.742564, 189.928231)"><g><path d="M 22 0.59375 C 18.09375 0.59375 14.597656 -0.1875 11.515625 -1.75 C 8.441406 -3.320312 6.046875 -5.492188 4.328125 -8.265625 C 2.617188 -11.046875 1.765625 -14.191406 1.765625 -17.703125 C 1.765625 -21.222656 2.617188 -24.359375 4.328125 -27.109375 C 6.046875 -29.867188 8.441406 -32.019531 11.515625 -33.5625 C 14.597656 -35.101562 18.09375 -35.875 22 -35.875 C 26 -35.875 29.453125 -35.015625 32.359375 -33.296875 C 35.265625 -31.585938 37.328125 -29.210938 38.546875 -26.171875 L 28.96875 -21.296875 C 27.363281 -24.460938 25.019531 -26.046875 21.9375 -26.046875 C 19.726562 -26.046875 17.894531 -25.304688 16.4375 -23.828125 C 14.988281 -22.347656 14.265625 -20.304688 14.265625 -17.703125 C 14.265625 -15.054688 14.988281 -12.984375 16.4375 -11.484375 C 17.894531 -9.992188 19.726562 -9.25 21.9375 -9.25 C 25.019531 -9.25 27.363281 -10.832031 28.96875 -14 L 38.546875 -9.109375 C 37.328125 -6.078125 35.265625 -3.703125 32.359375 -1.984375 C 29.453125 -0.265625 26 0.59375 22 0.59375 Z M 22 0.59375 "/></g></g></g><g fill="#33e3ff" fill-opacity="1"><g transform="translate(153.048063, 189.928231)"><g><path d="M 40.046875 -17.578125 C 40.046875 -17.492188 39.976562 -16.472656 39.84375 -14.515625 L 14.1875 -14.515625 C 14.707031 -12.691406 15.71875 -11.289062 17.21875 -10.3125 C 18.71875 -9.34375 20.597656 -8.859375 22.859375 -8.859375 C 24.546875 -8.859375 26.007812 -9.09375 27.25 -9.5625 C 28.488281 -10.039062 29.734375 -10.828125 30.984375 -11.921875 L 37.5 -5.140625 C 34.070312 -1.316406 29.0625 0.59375 22.46875 0.59375 C 18.34375 0.59375 14.71875 -0.1875 11.59375 -1.75 C 8.46875 -3.320312 6.046875 -5.492188 4.328125 -8.265625 C 2.617188 -11.046875 1.765625 -14.191406 1.765625 -17.703125 C 1.765625 -21.179688 2.597656 -24.296875 4.265625 -27.046875 C 5.929688 -29.804688 8.238281 -31.96875 11.1875 -33.53125 C 14.144531 -35.09375 17.46875 -35.875 21.15625 -35.875 C 24.675781 -35.875 27.867188 -35.144531 30.734375 -33.6875 C 33.597656 -32.238281 35.863281 -30.132812 37.53125 -27.375 C 39.207031 -24.625 40.046875 -21.359375 40.046875 -17.578125 Z M 21.21875 -27.078125 C 19.3125 -27.078125 17.71875 -26.535156 16.4375 -25.453125 C 15.15625 -24.367188 14.34375 -22.894531 14 -21.03125 L 28.453125 -21.03125 C 28.109375 -22.894531 27.296875 -24.367188 26.015625 -25.453125 C 24.734375 -26.535156 23.132812 -27.078125 21.21875 -27.078125 Z M 21.21875 -27.078125 "/></g></g></g><g fill="#33e3ff" fill-opacity="1"><g transform="translate(189.892377, 189.928231)"><g><path d="M 49.9375 -35.875 C 54.28125 -35.875 57.742188 -34.570312 60.328125 -31.96875 C 62.910156 -29.363281 64.203125 -25.4375 64.203125 -20.1875 L 64.203125 0 L 51.828125 0 L 51.828125 -18.171875 C 51.828125 -20.640625 51.359375 -22.457031 50.421875 -23.625 C 49.492188 -24.800781 48.179688 -25.390625 46.484375 -25.390625 C 44.617188 -25.390625 43.117188 -24.738281 41.984375 -23.4375 C 40.859375 -22.132812 40.296875 -20.160156 40.296875 -17.515625 L 40.296875 0 L 27.9375 0 L 27.9375 -18.171875 C 27.9375 -22.984375 26.15625 -25.390625 22.59375 -25.390625 C 20.6875 -25.390625 19.164062 -24.738281 18.03125 -23.4375 C 16.90625 -22.132812 16.34375 -20.160156 16.34375 -17.515625 L 16.34375 0 L 3.96875 0 L 3.96875 -35.296875 L 15.75 -35.296875 L 15.75 -31.578125 C 17.050781 -33.015625 18.601562 -34.085938 20.40625 -34.796875 C 22.207031 -35.515625 24.171875 -35.875 26.296875 -35.875 C 28.773438 -35.875 30.988281 -35.414062 32.9375 -34.5 C 34.894531 -33.59375 36.484375 -32.207031 37.703125 -30.34375 C 39.085938 -32.125 40.84375 -33.488281 42.96875 -34.4375 C 45.09375 -35.394531 47.414062 -35.875 49.9375 -35.875 Z M 49.9375 -35.875 "/></g></g></g><g fill="#33e3ff" fill-opacity="1"><g transform="translate(252.971005, 189.928231)"><g><path d="M 3.96875 -35.296875 L 16.34375 -35.296875 L 16.34375 0 L 3.96875 0 Z M 10.15625 -39.203125 C 7.894531 -39.203125 6.070312 -39.828125 4.6875 -41.078125 C 3.300781 -42.335938 2.609375 -43.898438 2.609375 -45.765625 C 2.609375 -47.640625 3.300781 -49.203125 4.6875 -50.453125 C 6.070312 -51.710938 7.894531 -52.34375 10.15625 -52.34375 C 12.414062 -52.34375 14.238281 -51.742188 15.625 -50.546875 C 17.007812 -49.359375 17.703125 -47.832031 17.703125 -45.96875 C 17.703125 -44.007812 17.007812 -42.390625 15.625 -41.109375 C 14.238281 -39.835938 12.414062 -39.203125 10.15625 -39.203125 Z M 10.15625 -39.203125 "/></g></g></g><g fill="#33e3ff" fill-opacity="1"><g transform="translate(268.398213, 189.928231)"><g><path d="M 21.6875 0.59375 C 17.90625 0.59375 14.492188 -0.1875 11.453125 -1.75 C 8.421875 -3.320312 6.046875 -5.492188 4.328125 -8.265625 C 2.617188 -11.046875 1.765625 -14.191406 1.765625 -17.703125 C 1.765625 -21.179688 2.617188 -24.304688 4.328125 -27.078125 C 6.046875 -29.859375 8.410156 -32.019531 11.421875 -33.5625 C 14.441406 -35.101562 17.863281 -35.875 21.6875 -35.875 C 25.5 -35.875 28.925781 -35.101562 31.96875 -33.5625 C 35.007812 -32.019531 37.375 -29.867188 39.0625 -27.109375 C 40.757812 -24.359375 41.609375 -21.222656 41.609375 -17.703125 C 41.609375 -14.191406 40.757812 -11.046875 39.0625 -8.265625 C 37.375 -5.492188 35.007812 -3.320312 31.96875 -1.75 C 28.925781 -0.1875 25.5 0.59375 21.6875 0.59375 Z M 21.6875 -9.25 C 23.851562 -9.25 25.628906 -9.992188 27.015625 -11.484375 C 28.410156 -12.984375 29.109375 -15.054688 29.109375 -17.703125 C 29.109375 -20.304688 28.410156 -22.347656 27.015625 -23.828125 C 25.628906 -25.304688 23.851562 -26.046875 21.6875 -26.046875 C 19.507812 -26.046875 17.726562 -25.304688 16.34375 -23.828125 C 14.957031 -22.347656 14.265625 -20.304688 14.265625 -17.703125 C 14.265625 -15.054688 14.957031 -12.984375 16.34375 -11.484375 C 17.726562 -9.992188 19.507812 -9.25 21.6875 -9.25 Z M 21.6875 -9.25 "/></g></g></g></svg>